<?xml version="1.0" encoding="utf-8" ?><svg xmlns="http://www.w3.org/2000/svg" xmlns:xlink="http://www.w3.org/1999/xlink" width="177" height="71" viewBox="0 0 177 71"><clipPath id="cl_3"><rect x="-1.1444092e-05" y="-7.6293945e-06" width="177.00002" height="70.999992"/></clipPath><g clip-path="url(#cl_3)"><path fill="#9F2B11" transform="matrix(0.239837 0 0 0.240678 -41.9716 -96.0305)" d="M716.577 457.191C717.666 457.774 718.933 458.684 719.985 459.384C727.492 463.838 735.364 469.213 742.758 473.979C746.51 476.397 754.051 480.883 757.176 483.306C757.436 483.42 758.162 484.009 758.424 484.208C759.148 486.916 758.853 498.673 758.849 502.096L758.797 537.237C744.702 546.078 730.704 555.073 716.805 564.219C703.022 554.82 688.909 545.916 674.49 537.525C674.259 519.948 674.677 501.531 674.716 483.879C687.544 476.353 704.378 465.653 716.577 457.191ZM717.734 511.63L717.717 545.373L732.773 535.778C736.331 533.545 739.904 531.333 743.489 529.142C739.103 526.323 731.97 522.125 728.825 518.262L729.252 517.912C735.055 520.149 739.531 523.378 744.576 526.951L744.523 494.69C735.279 500.204 726.75 506.197 717.734 511.63ZM700.042 535.182C704.408 538.025 711.047 542.09 715.073 545.072L715.134 511.632C707.545 505.42 697.302 500.23 689.074 494.252C688.551 502.649 688.39 518.357 689.186 526.727C694.004 523.199 701.82 518.174 707.424 516.073C702.773 521.783 696.579 525.038 690.222 528.716L700.042 535.182ZM690.094 492.45C696.269 495.418 711.22 505.269 716.813 509.203L731.149 499.774C734.797 497.486 739.546 494.312 743.252 492.331C735.243 487.171 725.423 481.263 717.781 475.889C717.783 478.88 718.166 494.512 716.856 496.257C713.79 494.576 716.191 477.679 714.903 476.241C706.714 482.179 698.72 487.156 690.094 492.45ZM715.158 560.637L715.162 547.617C708.664 543.464 693.829 534.815 688.148 530.631C684.998 532.566 681.701 534.822 678.629 536.663C689.269 543.411 699.845 550.259 710.355 557.207C711.943 558.262 713.761 559.384 715.158 560.637ZM682.648 530.763L686.448 528.453C686.171 516.568 686.071 504.679 686.147 492.791C683.105 490.72 680.05 488.668 676.983 486.635C677.189 502.595 677.244 518.556 677.146 534.516L682.648 530.763ZM756.235 486.847C753.042 488.963 749.721 491.1 746.578 493.268C746.558 504.017 746.175 517.483 746.601 528.093L750.796 530.983L756.584 535.1C756.196 519.035 756.7 502.691 756.235 486.847ZM683.069 487.846L687.996 491.064C697.003 485.101 706.089 479.259 715.253 473.541C715.213 470.746 715.293 463.906 714.948 461.444C702.822 469.373 690.627 477.195 678.363 484.91L683.069 487.846ZM745.449 530.443C738.723 535.098 724.82 544.338 717.708 547.87L717.726 560.649L724.655 556.28C734.201 549.957 745.707 541.934 755.581 536.455C752.22 534.486 748.742 532.504 745.449 530.443ZM718.068 473.143C725.545 477.965 738.709 485.803 745.293 491.04C748.481 489.091 751.656 487.122 754.818 485.131L754.942 484.556L718.215 461.224C717.606 463.155 718.005 470.649 718.068 473.143Z"/><path transform="matrix(0.239837 0 0 0.240678 -41.9716 -96.0305)" d="M598.813 477.131C608.082 477.372 617.533 477.029 626.821 477.106C636.536 477.188 647.176 476.308 654.709 483.858C658.232 487.435 660.101 492.321 659.865 497.336C659.561 504.069 655.393 508.165 650.744 512.302C663.135 518.347 666.713 527.133 661.286 540.092C652.569 551.419 638.352 550.518 625.545 550.536C616.657 550.549 607.767 550.52 598.878 550.498C597.977 529.095 598.114 498.574 598.813 477.131ZM609.928 517.751C610.217 525.586 609.851 533.255 610.054 541.002C619.895 540.712 632.861 541.773 642.189 539.471C652.557 536.875 655.191 525.964 646.184 520.54C639.723 516.649 627.01 517.389 619.377 517.562L609.928 517.751ZM610.299 508.339C621.249 508.475 634.831 509.839 644.405 504.758C659.892 482.938 621.258 486.624 610.252 486.715C610.235 493.644 610.048 501.487 610.299 508.339Z"/><path transform="matrix(0.239837 0 0 0.240678 -41.9716 -96.0305)" d="M527.606 477.309C543.765 476.713 564.109 476.994 580.401 477.207C580.488 480.344 580.278 483.606 580.142 486.751L539.539 486.733L539.517 507.415C551.599 507.298 563.681 507.293 575.763 507.399C575.828 510.607 575.745 514.076 575.729 517.308C563.925 517.532 551.466 517.348 539.612 517.353C539.105 522.08 539.486 534.672 539.532 540.047C553.152 540.054 569.203 539.68 582.63 540.285L582.617 550.449C564.33 550.67 545.824 550.513 527.521 550.495C526.846 528.155 527.243 499.827 527.606 477.309Z"/><path transform="matrix(0.239837 0 0 0.240678 -41.9716 -96.0305)" d="M275.458 476.322C289.156 475.238 294.277 476.597 306.238 482.772C304.901 485.806 303.597 489.283 302.355 492.391C295.678 489.06 290.864 486.261 283.074 486.093C278.313 485.984 271.543 486.476 268.07 490.093C254.967 503.591 281.898 508.048 290.774 510.509C306.667 514.915 314.721 527.352 304.325 542.263C299.782 548.78 288.718 550.686 281.01 551.52C267.657 551.142 261.758 549.055 250.914 541.543C252.304 538.504 253.836 535.402 255.28 532.377C264.262 537.449 271.202 542.029 282.137 540.99C286.346 540.59 292.01 539.559 294.838 536.106C295.97 534.724 297.024 531.272 296.539 529.601C293.321 518.526 269.176 518.927 260.365 511.709C256.698 509.335 253.166 505.269 252.519 500.831C251.556 494.24 254.117 486.684 259.415 482.428C264.035 478.715 269.683 477.203 275.458 476.322Z"/><path transform="matrix(0.239837 0 0 0.240678 -41.9716 -96.0305)" d="M817.004 477.245C820.9 477.104 825.122 477.15 829.047 477.115C823.68 487.18 811.655 502.254 804.735 512.462C811.511 523.864 823.105 539.161 831.293 549.604L831.071 550.302L829.116 550.426L818.017 550.481C811.285 540.9 804.494 531.361 797.642 521.865C790.837 530.907 783.801 541.047 777.258 550.302C772.641 550.604 768.759 550.507 764.163 550.228C772.959 537.781 781.988 525.538 790.588 512.959C782.679 501.844 773.297 488.897 766.166 477.368L778.943 477.359L797.954 504.197C803.997 494.994 810.527 486.144 817.004 477.245Z"/><path transform="matrix(0.239837 0 0 0.240678 -41.9716 -96.0305)" d="M381.229 477.056C385.473 477.104 389.717 477.184 393.961 477.296C401.795 489.207 408.864 501.481 416.423 513.577C422.7 501.944 431.444 488.485 438.5 477.247C442.481 477.086 446.745 477.214 450.753 477.264L436.708 500.129C433.235 505.747 422.344 521.308 421.906 526.617C421.458 532.05 421.654 544.071 421.477 550.408C417.812 550.481 414.019 550.443 410.342 550.455C410.288 546.708 410.754 529.899 409.911 527.53C404.1 511.203 389.241 492.801 381.229 477.056Z"/><path transform="matrix(0.239837 0 0 0.240678 -41.9716 -96.0305)" d="M315.868 477.26L375.818 477.149L375.564 486.809C367.487 486.742 359.411 486.723 351.334 486.752L351.341 525.498C351.351 533.816 351.315 542.135 351.234 550.453C347.547 550.467 343.86 550.445 340.173 550.386C339.86 529.462 340.113 507.754 340.211 486.789L315.936 486.845L315.868 477.26Z"/><path transform="matrix(0.239837 0 0 0.240678 -41.9716 -96.0305)" d="M462.511 477.189L474.052 477.302C473.622 498.229 473.547 519.161 473.828 540.091C487.234 540.031 500.64 540.09 514.045 540.269C514.017 543.463 514.04 546.657 514.114 549.85C512.54 551.025 468.188 550.498 462.488 550.486L462.511 477.189Z"/><path transform="matrix(0.239837 0 0 0.240678 -41.9716 -96.0305)" d="M324.73 588.602C338.199 587.856 348.256 597.483 338.821 610.374C337.359 612.371 334.79 613.614 333.275 615.547C335.04 618.234 340.63 615.367 343.537 616.865L343.63 617.982L342.625 619.138C339.923 619.947 337.482 620.68 334.755 619.596C328.371 617.059 318.592 613.144 315.664 606.619C314.281 603.615 314.157 600.182 315.321 597.087C317.085 592.503 320.656 590.537 324.73 588.602ZM329.323 611.598C334.637 611.158 338.627 606.555 338.308 601.233C337.989 595.91 333.478 591.816 328.15 592.014C324.593 592.146 321.387 594.193 319.771 597.364C318.155 600.535 318.383 604.332 320.366 607.287C322.349 610.242 325.776 611.892 329.323 611.598Z"/><path fill="#9F2B11" transform="matrix(0.239837 0 0 0.240678 -41.9716 -96.0305)" d="M662.119 588.17C669.733 586.792 677.011 591.886 678.323 599.512C679.636 607.138 674.479 614.372 666.842 615.618C659.297 616.85 652.17 611.769 650.874 604.236C649.578 596.702 654.596 589.531 662.119 588.17ZM666.83 611.427C670.306 610.564 673.041 607.883 673.973 604.424C674.905 600.965 673.887 597.273 671.315 594.78C668.743 592.287 665.021 591.385 661.593 592.425C656.476 593.977 653.529 599.324 654.95 604.479C656.37 609.633 661.641 612.716 666.83 611.427Z"/><path fill="#9F2B11" transform="matrix(0.239837 0 0 0.240678 -41.9716 -96.0305)" d="M686.836 588.662C692.835 588.579 703.248 587.717 707.839 591.869C714.305 597.716 713.627 605.654 708.13 611.694C700.79 616.025 694.926 615.289 686.672 615.287C686.656 606.412 686.711 597.537 686.836 588.662ZM690.858 611.468C696.943 611.567 700.121 611.974 705.441 608.698C714.211 594.8 701.62 592.572 690.735 592.222L690.858 611.468Z"/><path fill="#9F2B11" transform="matrix(0.239837 0 0 0.240678 -41.9716 -96.0305)" d="M809.009 588.535C817.425 589.034 833.095 586.482 830.223 600.568C829.717 603.048 827.003 604.686 825.031 605.892C826.94 608.478 830.399 611.755 828.934 614.814L826.847 615.416C824.852 612.737 822.859 609.635 820.981 606.833L813.236 606.671C813.299 609.374 813.603 612.17 812.778 614.679L811.142 614.967L810.188 614.152C808.371 609.354 808.99 594.509 809.009 588.535ZM813.251 603.216C817.556 603.217 821.177 603.423 825.185 601.652C830.76 591.712 819.316 592.93 813.143 592.205L813.251 603.216Z"/><path transform="matrix(0.239837 0 0 0.240678 -41.9716 -96.0305)" d="M539.375 588.706C547.883 588.647 563.332 586.992 560.172 600.748C559.626 603.128 556.996 604.841 555.056 606C556.906 608.308 561.057 612.8 559.027 615.626C557.639 615.435 557.542 615.188 556.349 614.373L551.129 606.811L543.264 606.578C543.462 609.928 543.748 612.556 541.729 615.474L540.979 615.331C538.072 610.287 539.054 595.014 539.375 588.706ZM543.305 603.324C547.819 603.34 550.7 603.74 554.834 602.005C560.1 591.758 550.477 592.338 543.274 592.247L543.305 603.324Z"/><path transform="matrix(0.239837 0 0 0.240678 -41.9716 -96.0305)" d="M286.701 588.741C292.422 588.543 308.188 587.518 308.075 597.534C308.038 600.802 304.581 604.157 302.131 606.161C303.693 608.24 307.158 612.272 307.048 614.69L306.152 615.344C304.419 615.386 305.138 615.661 303.882 614.604C301.663 611.768 300.259 609.684 298.306 606.646L290.116 606.709C290.282 609.466 290.853 612.424 289.19 614.527C287.467 614.445 288.169 614.756 286.953 613.714C286.009 609.456 285.935 592.899 286.701 588.741ZM290.14 603.455C294.979 603.366 298.128 603.828 302.384 601.751C306.612 591.457 297.342 592.306 290.07 592.212L290.14 603.455Z"/><path fill="#9F2B11" transform="matrix(0.239837 0 0 0.240678 -41.9716 -96.0305)" d="M613.859 587.797C620.815 591.57 624.318 600.034 627.878 606.966C630.153 602.79 632.468 598.591 634.956 594.539C636.3 592.35 637.822 588.915 640.722 590.2C642.894 593.533 643.358 612.996 641.142 615.4L639.686 615.088C637.512 612.567 638.117 606.318 638.106 602.622L638.134 595.896C635.084 601.777 631.159 607.22 628.38 613.192C624.236 608.343 620.619 602.106 617.395 596.568C617.475 601.646 617.702 607.749 617.466 612.861C617.417 613.933 616.419 614.72 615.589 615.232L614.762 614.494C612.955 607.28 613.519 595.445 613.859 587.797Z"/><path fill="#9F2B11" transform="matrix(0.239837 0 0 0.240678 -41.9716 -96.0305)" d="M786.967 587.771L789.565 588.73C792.244 591.501 801.969 611.582 802.101 614.712C798.609 616.529 797.73 612.234 795.835 609.881C794.446 608.156 794.236 608.606 792.202 608.418L781.772 608.171C780.71 611.634 780.52 614.822 776.251 614.581L775.777 613.691C776.576 607.984 784.094 593.39 786.967 587.771ZM789.227 605.226L794 605.216C792.847 602.565 789.912 595.326 788.146 593.625C786.558 597.28 784.84 601.496 783.03 604.988L789.227 605.226Z"/><path transform="matrix(0.239837 0 0 0.240678 -41.9716 -96.0305)" d="M578.035 588.303C579.203 588.516 579.718 588.694 580.859 589.037C583.867 591.98 592.756 610.833 593.154 614.303L592.06 614.973C586.789 613.817 590.207 608.693 582.847 608.111L572.8 608.155C572.086 610.885 571.886 612.759 569.58 614.324C567.487 614.611 568.362 614.85 566.778 614.037C566.586 610.473 576.043 592.392 578.035 588.303ZM574.464 604.917C576.054 605.029 578.137 605.234 579.681 605.222C581.324 605.082 583.111 605.22 584.242 604.369C584.247 601.272 581.484 595.765 579.362 593.556L574.464 604.917Z"/><path transform="matrix(0.239837 0 0 0.240678 -41.9716 -96.0305)" d="M263.661 588.299C264.326 588.516 266.361 589.211 266.797 589.613C270.072 592.632 278.451 611.035 278.812 614.504L277.575 615.085C272.568 613.388 275.193 608.454 269.604 608.006L258.48 608.089C257.8 610.194 257.09 613.377 255.229 614.474C253.177 614.292 253.749 614.748 252.662 613.702C253.61 607.829 260.707 594.276 263.661 588.299ZM259.876 605.111L266.051 605.33C268.406 605.119 268.359 605.531 269.718 604.273C269.833 600.784 267.281 595.942 265.397 593.081C263.617 597.119 261.776 601.129 259.876 605.111Z"/><path fill="#9F2B11" transform="matrix(0.239837 0 0 0.240678 -41.9716 -96.0305)" d="M720.104 588.126C721.776 588.374 721.684 588.339 723.169 589.143C726.223 593.467 723.685 601.552 724.911 606.749C725.193 608.209 725.887 610.413 727.455 610.956C745.274 617.137 734.766 589.249 741.373 588.498C742.617 589.788 742.232 589.467 742.638 591.548C742.76 597.073 744.084 607.456 740.2 611.641C737.834 614.192 734.086 615.416 730.629 615.369C717.136 615.184 719.666 597.152 720.104 588.126Z"/><path transform="matrix(0.239837 0 0 0.240678 -41.9716 -96.0305)" d="M427.154 588.73C430.402 588.652 439.889 587.803 441.529 590.754C438.793 593.391 430.81 592.556 427.2 592.349L427.081 600.083C429.666 600.058 439.085 599.537 440.441 601.896C435.471 604.747 429.757 602.407 427.238 603.965L427.096 611.547C431.141 611.501 438.773 610.773 441.793 613.172L441.251 613.897C436.293 615.381 428.847 614.951 423.517 614.863C423.471 608.403 423.03 595.432 423.66 589.501C424.998 588.575 425.264 588.871 427.154 588.73Z"/><path transform="matrix(0.239837 0 0 0.240678 -41.9716 -96.0305)" d="M350.663 588.235C351.976 588.551 352.389 588.813 353.619 589.403C357.306 595.609 349.36 611.552 362.296 611.665C373.024 611.759 365.996 593.967 371.246 588.655L372.113 588.853C373.057 590.21 372.766 590.214 372.959 592.075C373.358 600.643 374.748 615.37 362.385 615.436C359.105 615.485 355.95 614.176 353.668 611.819C348.559 606.607 350.392 595.686 350.663 588.235Z"/><path transform="matrix(0.239837 0 0 0.240678 -41.9716 -96.0305)" d="M506.823 588.376C507.074 588.39 508.471 588.452 508.691 588.543C513.497 590.551 508.094 604.552 512.35 608.987C513.409 610.363 515.555 612.013 517.427 611.94C530.34 611.439 522.335 593.148 526.705 588.545L527.736 588.642C529.256 590.023 528.726 589.155 528.988 591.549C529.419 601.108 530.946 616.95 516.309 615.284C512.154 614.812 509.84 612.357 507.393 609.226C506.308 603.139 506.694 594.694 506.823 588.376Z"/><path transform="matrix(0.239837 0 0 0.240678 -41.9716 -96.0305)" d="M459.344 588.587C463.362 588.428 468.772 588.439 471.992 591.09C472.66 592.826 472.676 592.005 472.131 593.631C465.911 594.405 459.31 589.514 454.846 596.034C453.374 598.151 452.822 600.775 453.315 603.306C454.594 610.201 460.548 612.405 466.855 610.994C468.958 609.66 468.99 609.376 471.173 609.418L471.793 610.126L471.494 611.507C465.689 618.88 453.92 615.163 450.514 607.391C449.065 604.014 449.009 600.202 450.358 596.784C452.298 591.941 454.978 590.534 459.344 588.587Z"/><path transform="matrix(0.239837 0 0 0.240678 -41.9716 -96.0305)" d="M477.883 588.754C481.864 588.639 497.166 587.881 499.495 591.011C497.231 592.819 493.856 592.393 491.028 592.32C491.034 597.415 491.14 602.509 491.345 607.599C491.408 610.111 491.777 612.684 490.073 614.529C488.33 614.894 489.097 615.038 487.665 614.307C486.396 610.071 487.129 597.352 487.257 592.417C482.419 592.706 478.967 594.125 477.883 588.754Z"/><path transform="matrix(0.239837 0 0 0.240678 -41.9716 -96.0305)" d="M394.253 588.785C400.859 588.616 410.231 588.017 416.245 590.282L416.171 591.059C412.696 592.596 410.956 592.413 407.291 592.338C407.259 597.787 407.275 603.237 407.341 608.687C407.349 610.714 407.59 614.375 405.114 614.875C402.229 611.742 403.294 596.953 403.387 592.376C400.615 592.493 396.384 593.014 394.25 591.283C393.76 589.66 393.78 590.464 394.253 588.785Z"/><path fill="#9F2B11" transform="matrix(0.239837 0 0 0.240678 -41.9716 -96.0305)" d="M753.091 587.972C754.568 588.402 754.466 588.367 755.626 589.386C757.594 593.385 756.728 606.357 756.626 611.508C761.021 611.261 766.626 610.52 770.554 612.188C771.721 613.729 771.384 612.862 771.414 614.945C765.212 614.956 758.812 615.177 752.593 615.32C752.662 606.202 752.828 597.086 753.091 587.972Z"/><path transform="matrix(0.239837 0 0 0.240678 -41.9716 -96.0305)" d="M383.105 588.256C384.718 588.466 385.095 588.367 386.435 589.284C387.74 592.407 387.133 610.699 387.088 615.288C385.454 615.074 385.087 614.997 383.51 614.522C382.037 611.293 382.94 592.878 383.105 588.256Z"/></g></svg>